<?xml version="1.0" encoding="UTF-8" standalone="no"?>
<svg width="100%" height="100%" viewBox="0 0 1352 1738" version="1.1" xmlns="http://www.w3.org/2000/svg" style="fill-rule:evenodd;clip-rule:evenodd;stroke-linejoin:round;stroke-miterlimit:2;">
  <g><path d="M220.417,938.875l-12.792,10.75c24.833,40.5 192.667,246.167 540.333,302.583c257.5,41.792 415.667,-2.583 415.667,-2.583c0,0 -8.667,84.875 38.625,218.083c54.458,153.375 149.417,244.792 149.417,244.792c0,0 -208.625,20.417 -380.917,-13.292c-212.458,-41.583 -418,-144.333 -561.167,-318.708c-162.708,-198.125 -247.083,-405.292 -247.083,-405.292l-16.875,0.708c27.208,305.083 158.167,564.417 355.833,761.458l-491.375,-0.125l0,-1043.167l13,-6.333c42.583,20.875 175.292,108.833 436.375,85.917c280.792,-24.667 406.292,-273.625 406.292,-273.625l-20.458,-22.917c0,0 -136.25,145.708 -441.792,123.083c-277.375,-20.542 -395.5,-178.042 -403.333,-416.208c-0.583,-55.625 0.458,-130.208 1.833,-183c135.125,-2.958 315.25,1.75 495.625,0c225.708,-2.167 445.292,56.292 555.708,224.5c186.75,284.542 73.333,714.375 -265.583,796.75c-332.542,80.833 -567.333,-83.375 -567.333,-83.375Z" style="fill:#0167ff;fill-rule:nonzero;"/></g>
</svg>
