<?xml version="1.0" encoding="UTF-8"?>
<svg id="Capa_2" data-name="Capa 2" xmlns="http://www.w3.org/2000/svg" viewBox="0 0 728.36 244.85">
  <g id="Capa_1-2" data-name="Capa 1">
    <g>
      <path fill="#020721" d="M711.67,51.39c-18.14.72-28.54,7.32-30.48,25.53l-3.35,45.38c-.64,6.06-2.11,14.43-5.36,16.02-3.78,1.85-8.33.87-9.99-4.61l-5.84-56.02c.11-8.2-8.15-15.81-16.22-15.81h-22.04c3.09,22.77,8.1,63.43,12.6,76.24,1,2.85,2.12,5.28,3.32,7.36,3.53,6.14,9.58,10.35,16.56,11.67.94.18,1.92.32,2.93.41,2.3.2,4.79.14,6.89-.21h0s10.94-.53,16.3-6.54c8.3-9.3,9.27-22.49,9.27-22.49h7.41c-1.09,9.03-6.51,25.86-12.83,35.94-10.89,17.36-26.94,29.24-44.79,35.77-24.96,9.12-60.41,7.05-78.65-7.89l-1.08.48c.04,33.42,28.63,53.16,62.54,52.19,15.8-.45,34.47-6.46,49.83-18.95s26.27-32.61,33.43-51.3c6.7-17.47,11.75-38.51,16.96-66.1,5.63-29.84,9.28-57.08,9.28-57.08h-16.69Z"/>
      <path fill="#020721" d="M188.5,65.26c-36.17,0-57.88,23.92-57.78,58.66.09,29.19,14.54,49.58,34.1,55.1,10.31-4.16,18.09-8.7,29.4-20.96,2.64-2.86,5.62-7.33,6.96-10.68l-1.22-1.37c-4.14,3.42-8.04,5.16-13.69,5.16-13.5,0-22.22-11.54-22.22-25.92s10.95-26.02,24.45-26.02,24.45,11.65,24.45,26.02c0,.48-.01.95-.04,1.42.21,4.75-.52,10.87-3.21,18.55-6.66,19.04-23.2,30.93-34.9,36.42,4.3.76,8.86,1.15,13.69,1.15,35.95,0,57.78-21.39,57.78-58.88s-21.83-58.66-57.78-58.66Z"/>
      <path fill="#020721" d="M311.74,149.37c-1.67,1.84-3.98,3.62-8.32,3.62-10.97,0-12.8-12.02-12.8-27.01v-59.1h-10.68c-14.56,0-26.37,11.81-26.37,26.37v48.83c0,28.89,12.57,40.13,31.09,40.13,13.62,0,23.44-6.18,28.48-21.29,0,0-.75-7.51-.75-11.22l-.65-.33Z"/>
      <path fill="#020721" d="M318.59,91.68v41.2c0,.37-.02.75-.04,1.14,0,2.34-.01,5.2-.01,8.54,0,12.26,2.8,19.15,3.29,20.25,4.92,10.18,15.34,17.19,27.38,17.19h6.43v-113.13h-12.24c-13.7,0-24.81,11.11-24.81,24.81Z"/>
      <path fill="#020721" d="M428.03,157.68c-6.98-1.93-10.28-7.92-10.28-15.48v-46.61c9.26-.61,18.88-3.49,28.6-10.02,20.17-13.57,13.77-36.38,13.77-36.38,0,0-9.87,7.06-30.47,13.27-6.22,1.88-14.19,3.42-20.15,3.98-2.79.26-7.98.3-7.98.3v-6.09s8.1-.02,16.23-3.78v-9.91c0-12.37-10.03-22.4-22.4-22.4h-15.35v42.37c-10.09-.08-17.26-.52-17.26-.52v11.83s7.78,5.1,17.26,9.44v57.59c0,6.36.75,40,40.77,36.94,21.18-1.62,31.52-13.84,37.84-23.03l-4.54-9.32c-5.72,5.64-15.12,10.84-26.04,7.82Z"/>
      <path fill="#020721" d="M555.87,138.35c-6.77,7.86-23.32,17.75-39.63,14.01-7.2-1.65-14.77-4.08-19.03-9.9-.94-.02-1.91-.05-2.92-.09-13.32-.54-22.9-5-22.9-5l.12-3.9s5.18,1.71,13.76,2.53c2.16.21,9.02.44,9.67.49,5.25.12,10.65.1,13.73.08,28.94-1.77,48.02-16.16,48.02-37.06,0-22.27-17-36.89-43.36-37.61-35.93-.99-57.42,23.28-57.42,60.11s20.95,58,54.69,58c28.64,0,43.49-20.54,46.15-30.54l.11-11.13-.99.02ZM512.98,91.35c7.28,0,12.79,4.91,12.79,12.4,0,10.14-12.74,21.03-32.81,21.03h-2.21c-.64-19.19,9.21-33.44,22.22-33.44Z"/>
      <path fill="#020721" d="M604.83,182.21c16.03-1.23,23.43-8.64,31.83-22.98-2.54-1.86-4.25-3.72-5.79-5.68-2.19,2.32-3.75,4.36-7.59,5.95-4.66,2.32-15.8,5.33-28.09-.36-6.13-2.84-16.18-13.93-18.32-21.67l4.83-3.26c1.45,5.24,9.41,14.89,15.04,17.98,4.35,2.38,7.47,3.26,10.88,3.8-2.64-1.68-5.81-7.61-5.81-13.79V46.95c0-12.37-10.03-22.4-22.4-22.4h-15.35v120.72c0,6.36.75,40,40.77,36.94Z"/>
      <path fill="#020721" d="M23.18,98.71l-1.35,1.13c2.61,4.26,20.26,25.88,56.81,31.81,27.07,4.39,43.7-.27,43.7-.27,0,0-.12,10.44,4.85,24.45,5.72,16.13,17.23,24.22,17.23,24.22,0,0-24.25,2.15-42.36-1.4-22.34-4.37-43.95-15.18-59-33.51-17.11-20.83-25.98-42.61-25.98-42.61l-1.78.08c2.86,32.08,16.63,59.35,37.41,80.06H1.05v-110.39l1.49-.03c4.48,2.19,18.31,11.5,45.76,9.09,29.52-2.59,42.72-28.77,42.72-28.77l-2.15-2.41s-14.33,15.32-46.45,12.94C13.26,60.95.84,44.39.02,19.35-.04,13.5.06,5.66.21.11,14.42-.21,33.36.29,52.32.11c23.73-.23,46.82,5.92,58.43,23.61,19.63,29.92,7.71,75.11-27.92,83.77-34.97,8.5-59.65-8.77-59.65-8.77Z"/>
    </g>
  </g>
</svg>
